PathFileType	4	(X/Y/Z)	results/motion.trc
DataRate	CameraRate	NumFrames	NumMarkers	Units	OrigDataRate	OrigDataStartFrame	OrigNumFrames
27	27	15	20	mm	27	77	614
Frame#	Time	NUI_SKELETON_POSITION_HIP_CENTER	NUI_SKELETON_POSITION_HIP_RIGHT	NUI_SKELETON_POSITION_HIP_LEFT	NUI_SKELETON_POSITION_KNEE_RIGHT	NUI_SKELETON_POSITION_KNEE_LEFT	NUI_SKELETON_POSITION_ANKLE_RIGHT	NUI_SKELETON_POSITION_ANKLE_LEFT	NUI_SKELETON_POSITION_FOOT_RIGHT	NUI_SKELETON_POSITION_FOOT_LEFT	NUI_SKELETON_POSITION_SPINE	NUI_SKELETON_POSITION_SHOULDER_RIGHT	NUI_SKELETON_POSITION_SHOULDER_LEFT	NUI_SKELETON_POSITION_ELBOW_RIGHT	NUI_SKELETON_POSITION_ELBOW_LEFT	NUI_SKELETON_POSITION_WRIST_RIGHT	NUI_SKELETON_POSITION_WRIST_LEFT	NUI_SKELETON_POSITION_HAND_RIGHT	NUI_SKELETON_POSITION_HAND_LEFT	NUI_SKELETON_POSITION_SHOULDER_CENTER	NUI_SKELETON_POSITION_HEAD
X1	Y1	Z1	X2	Y2	Z2	X3	Y3	Z3	X4	Y4	Z4	X5	Y5	Z5	X6	Y6	Z6	X7	Y7	Z7	X8	Y8	Z8	X9	Y9	Z9	X10	Y10	Z10	X11	Y11	Z11	X12	Y12	Z12	X13	Y13	Z13	X14	Y14	Z14	X15	Y15	Z15	X16	Y16	Z16	X17	Y17	Z17	X18	Y18	Z18	X19	Y19	Z19	X20	Y20	Z20	
77	2.811000	-85.346758	-111.269549	2878.364563	-4.521973	-189.819127	2884.015322	-166.091532	-194.626927	2864.566088	47.211200	-581.237018	2940.417528	-211.169541	-582.843006	2945.649862	76.000817	-926.244557	2976.440191	-238.093600	-894.622028	2983.405352	77.463910	-999.475777	2930.800915	-237.161472	-931.932092	2911.223412	-88.684805	-46.128724	2904.800653	94.820090	182.557613	2932.715416	-264.372379	172.953472	2909.087181	287.714362	45.947809	2935.403824	-471.066326	59.196584	2930.672407	481.130928	35.656802	2857.927799	-665.645480	65.027982	2865.197182	510.895967	44.494130	2836.508274	-703.523517	69.872603	2859.766006	-89.869224	290.702313	2893.119574	-79.493150	469.560057	2892.101526	
78	2.843000	-85.361212	-111.269251	2878.417492	-4.527505	-189.830348	2884.001017	-166.116208	-194.609269	2864.663601	47.202338	-581.225872	2940.387964	-211.179659	-582.759976	2945.753098	75.981371	-926.239312	2976.402998	-238.065422	-894.389272	2983.402729	77.468976	-999.432325	2930.763721	-237.118721	-931.735635	2911.115885	-88.678017	-46.137452	2905.009508	94.838135	182.544917	2932.636738	-264.376044	172.985837	2909.227371	287.671447	45.795806	2935.197353	-471.080214	59.085045	2930.864573	481.084019	35.301186	2857.727528	-665.660262	64.814128	2865.297079	510.553062	44.373363	2836.615801	-703.588009	69.818787	2859.773397	-89.874022	290.761352	2893.393755	-79.491146	469.659775	2892.329454	
79	2.895000	-85.376233	-111.266464	2878.479004	-4.532584	-189.840794	2883.989096	-166.141748	-194.590211	2864.765406	47.193203	-581.215262	2940.360069	-211.188719	-582.671702	2945.861578	75.963169	-926.238596	2976.377964	-238.040507	-894.149840	2983.390808	77.473536	-999.394894	2930.734396	-237.079844	-931.531608	2910.997629	-88.669315	-46.143427	2905.247211	94.856761	182.532996	2932.562351	-264.381438	173.021168	2909.372568	287.640452	45.667488	2934.998989	-471.097410	58.998559	2931.038380	481.085122	35.073780	2857.580662	-665.679693	64.728156	2865.369320	510.180771	44.429608	2836.838484	-703.661621	70.040338	2859.723806	-89.872479	290.824652	2893.694878	-79.483323	469.762892	2892.573833	
80	2.913000	-85.390285	-111.261301	2878.547192	-4.536868	-189.850479	2883.979082	-166.167110	-194.569945	2864.871264	47.183950	-581.205010	2940.332413	-211.200744	-582.586408	2945.974588	75.946167	-926.238120	2976.354837	-238.022730	-893.901527	2983.366966	77.477202	-999.362409	2930.711508	-237.048283	-931.317508	2910.864830	-88.656589	-46.145868	2905.510426	94.876885	182.521924	2932.492256	-264.388531	173.058793	2909.521818	287.634611	45.588534	2934.805393	-471.117586	58.938682	2931.205034	481.177986	35.065543	2857.544661	-665.695071	64.778030	2865.403175	509.959579	44.911567	2837.213039	-703.690171	70.465058	2859.626532	-89.863330	290.896565	2894.018412	-79.473123	469.870925	2892.837048	
81	2.945000	-85.404001	-111.254230	2878.622055	-4.540476	-189.859658	2883.971214	-166.192412	-194.548041	2864.981890	47.174472	-581.194997	2940.305710	-211.212844	-582.504332	2946.087360	75.929083	-926.237524	2976.333857	-238.014281	-893.736243	2983.365774	77.480294	-999.334335	2930.692673	-237.028614	-931.180000	2910.777569	-88.641629	-46.146154	2905.796766	94.898164	182.511330	2932.425261	-264.395863	173.101217	2909.674406	287.652373	45.553632	2934.621572	-471.146584	58.912065	2931.366444	481.341571	35.276994	2857.582569	-665.721178	64.972125	2865.406990	509.799957	45.567077	2837.660074	-703.725278	71.055919	2859.519720	-89.852050	290.971369	2894.356251	-79.469025	469.984859	2893.122435	
82	2.980000	-85.417435	-111.245573	2878.702641	-4.543476	-189.868242	2883.965254	-166.217566	-194.525361	2865.094662	47.164988	-581.185222	2940.279961	-211.225629	-582.434177	2946.200371	75.912103	-926.236749	2976.312876	-238.003209	-893.593132	2983.365297	77.483103	-999.315083	2930.693865	-237.007275	-931.060612	2910.698175	-88.624910	-46.144366	2906.105042	94.919994	182.501405	2932.361603	-264.403641	173.143953	2909.827232	287.685931	45.558020	2934.448242	-471.193522	58.928363	2931.524515	481.540143	35.617605	2857.661963	-665.769458	65.359041	2865.366220	509.832203	46.584398	2838.067055	-703.773499	71.793996	2859.376669	-89.838542	291.053265	2894.713163	-79.463243	470.101655	2893.416882	
83	3.029000	-85.429750	-111.233763	2878.789663	-4.545392	-189.876303	2883.962154	-166.242719	-194.501042	2865.210533	47.155339	-581.175327	2940.255642	-211.239353	-582.353890	2946.307421	75.893752	-926.226795	2976.279259	-237.977445	-893.348932	2983.345509	77.485286	-999.298990	2930.695057	-236.970335	-930.852711	2910.576105	-88.604346	-46.138156	2906.433105	94.946049	182.491526	2932.299614	-264.412969	173.191011	2909.985065	287.755400	45.611776	2934.279203	-471.255809	58.987252	2931.679487	481.825054	36.201205	2857.798576	-665.828645	65.907776	2865.273952	509.919941	47.814041	2838.485479	-703.830600	72.756924	2859.192371	-89.819938	291.138709	2895.078182	-79.461440	470.235378	2893.742323	
84	3.045000	-85.441567	-111.218676	2878.883362	-4.546507	-189.883381	2883.961201	-166.267991	-194.474652	2865.331411	47.145765	-581.165552	2940.233707	-211.250737	-582.265198	2946.415901	75.872652	-926.211238	2976.239681	-237.945274	-893.077850	2983.326674	77.486910	-999.286652	2930.699825	-236.928314	-930.622756	2910.453320	-88.581339	-46.127103	2906.781197	94.973058	182.483047	2932.240963	-264.424443	173.244506	2910.150528	287.840068	45.694627	2934.119701	-471.320540	59.092410	2931.827545	482.163638	36.997925	2858.014345	-665.882170	66.681638	2865.161180	509.980500	49.408022	2838.987112	-703.918874	73.953509	2859.018087	-89.798957	291.228950	2895.453453	-79.459213	470.371485	2894.076109	
85	3.079000	-85.453086	-111.200958	2878.980875	-4.547060	-189.889863	2883.961916	-166.293904	-194.445938	2865.453959	47.136754	-581.156433	2940.213442	-211.261630	-582.174420	2946.523905	75.858824	-926.208258	2976.222754	-237.910673	-892.763615	2983.289957	77.488318	-999.277413	2930.709124	-236.883357	-930.350840	2910.305500	-88.556752	-46.112124	2907.143831	95.002115	182.475001	2932.184935	-264.436573	173.299551	2910.316944	287.937194	45.800559	2933.968544	-471.394390	59.246391	2931.972980	482.537657	37.967313	2858.277798	-665.940404	67.618683	2865.028858	510.050356	51.181722	2839.531422	-704.041719	75.362608	2858.847141	-89.773200	291.324466	2895.837545	-79.455115	470.511466	2894.418001	
86	3.113000	-85.463390	-111.179255	2879.082918	-4.546714	-189.895511	2883.964300	-166.319504	-194.414809	2865.577459	47.127746	-581.146300	2940.194368	-211.273879	-582.085550	2946.629286	75.846210	-926.204979	2976.207256	-237.878129	-892.447889	2983.247280	77.489525	-999.271035	2930.721998	-236.841008	-930.076897	2910.152435	-88.528916	-46.091635	2907.519102	95.033675	182.467669	2932.131529	-264.451116	173.361495	2910.490036	288.061559	45.958992	2933.829308	-471.468031	59.443772	2932.108402	482.970446	39.095502	2858.626366	-665.981948	68.801321	2864.872456	510.123134	53.097606	2840.094566	-704.148650	76.916531	2858.671665	-89.743361	291.422695	2896.226406	-79.451360	470.655859	2894.770622	
87	3.145000	-85.473195	-111.155011	2879.189014	-4.545750	-189.900517	2883.968115	-166.345105	-194.382027	2865.703106	47.118459	-581.135273	2940.175295	-211.281300	-582.012117	2946.726799	75.835139	-926.199377	2976.192236	-237.906829	-892.435312	2983.394146	77.490196	-999.261141	2930.725336	-238.121480	-931.984127	2913.022041	-88.499032	-46.067659	2907.907486	95.066652	182.460949	2932.080746	-264.468133	173.432425	2910.673380	288.224280	46.195958	2933.701992	-471.546680	59.689701	2932.227135	483.467758	40.399473	2859.047413	-666.034579	70.104130	2864.710808	510.208070	55.197075	2840.705633	-704.242229	78.592010	2858.468294	-89.710891	291.523933	2896.621227	-79.448223	470.801115	2895.123959	
88	3.187000	-85.482165	-111.127131	2879.300356	-4.543968	-189.904615	2883.973837	-166.370481	-194.347084	2865.831375	47.110178	-581.127405	2940.157652	-211.288705	-581.942677	2946.822166	75.822525	-926.194012	2976.179361	-237.904787	-892.301083	2983.419895	77.490613	-999.252141	2930.727243	-238.285437	-932.143390	2913.363457	-88.467158	-46.038441	2908.308983	95.102325	182.455480	2932.034016	-264.486969	173.514485	2910.866022	288.425773	46.508443	2933.585882	-471.627235	59.971262	2932.336330	484.027117	41.916773	2859.526873	-666.087568	71.528628	2864.556551	510.400116	57.493743	2841.375351	-704.306424	80.419153	2858.289719	-89.674897	291.630447	2897.024393	-79.441026	470.950156	2895.475388	
89	3.214000	-85.490093	-111.096255	2879.416466	-4.541182	-189.907938	2883.981943	-166.395694	-194.310516	2865.961313	47.102146	-581.119657	2940.140486	-211.293980	-581.875801	2946.917772	75.809732	-926.187932	2976.167917	-237.897560	-892.184556	2983.456612	77.490792	-999.244094	2930.729151	-238.432273	-932.291746	2913.676739	-88.432789	-46.005551	2908.721685	95.140629	182.450786	2931.989670	-264.506638	173.599705	2911.060572	288.653672	46.878137	2933.478832	-471.712619	60.291477	2932.435751	484.636754	43.626983	2860.089540	-666.149080	73.038571	2864.412785	510.632277	59.950549	2842.130661	-704.355776	82.416199	2858.095407	-89.634567	291.738153	2897.432327	-79.420455	471.133709	2895.885706	
90	3.246000	-85.497491	-111.062385	2879.536152	-4.537602	-189.910397	2883.991957	-166.420877	-194.272101	2866.093636	47.094882	-581.112504	2940.124989	-211.298674	-581.820905	2947.011232	75.797595	-926.181972	2976.157427	-237.894803	-892.095327	2983.494759	77.489950	-999.240637	2930.738926	-238.566086	-932.433724	2913.958549	-88.397473	-45.969579	2909.141779	95.181368	182.447687	2931.948423	-264.528126	173.691332	2911.261082	288.898110	47.289390	2933.380842	-471.795201	60.658086	2932.527781	485.269696	45.456357	2860.707045	-666.192114	74.672550	2864.256620	510.888159	62.472109	2842.929363	-704.419374	84.607236	2857.910872	-89.593664	291.844547	2897.838354	-79.404935	471.303374	2896.282196	
91	3.279000	-85.504740	-111.025840	2879.659653	-4.533319	-189.912289	2884.003639	-166.446418	-194.232196	2866.227627	47.087654	-581.105173	2940.109730	-211.302951	-581.772923	2947.103500	75.785607	-926.176012	2976.147890	-237.895474	-892.037034	2983.551979	77.489421	-999.238849	2930.750608	-238.687709	-932.575524	2914.216042	-88.361785	-45.930650	2909.568310	95.225208	182.445377	2931.909561	-264.553130	173.790589	2911.469936	289.159596	47.732752	2933.293581	-471.889526	61.097957	2932.610512	485.929072	47.416020	2861.385345	-666.242123	76.441757	2864.081144	511.162460	65.062933	2843.768120	-704.416692	86.953200	2857.703447	-89.553706	291.950285	2898.243666	-79.390898	471.470714	2896.676779	
